<?xml version="1.0" encoding="UTF-8"?>
<svg version="1.1" xmlns="http://www.w3.org/2000/svg" width="500" height="500">
<path d="M0 0 C1.5478418 0.05365723 1.5478418 0.05365723 3.12695312 0.10839844 C27.17633251 1.07573989 51.72430794 4.44689759 74 14 C74.70511719 14.30164062 75.41023437 14.60328125 76.13671875 14.9140625 C89.44646531 20.70910259 101.80487718 27.68565782 113 37 C113.5273877 37.42796875 114.05477539 37.8559375 114.59814453 38.296875 C122.69492363 44.87734409 129.77767821 51.55008701 136 60 C136.62390625 60.84433594 137.2478125 61.68867187 137.890625 62.55859375 C139.6476707 65.00699874 141.33679684 67.4870732 143 70 C143.50144531 70.7425 144.00289063 71.485 144.51953125 72.25 C158.17048643 93.57286403 165 121.88648941 165 147 C160.33255996 149.33372002 153.69755267 148.43105153 148.5 148.5625 C147.72253418 148.58301422 146.94506836 148.60352844 146.14404297 148.62466431 C126.94711923 149.10920662 107.74239756 149.14353128 88.54043579 149.18122482 C85.99951439 149.1875012 83.45863021 149.19741622 80.91772461 149.20828247 C76.85727824 149.22498358 72.79694449 149.23108711 68.73646545 149.22925949 C67.21809844 149.23005815 65.69972906 149.23419735 64.18138123 149.24187088 C62.07782989 149.25170039 59.97465166 149.24886874 57.87109375 149.24291992 C56.68443115 149.24434494 55.49776855 149.24576996 54.27514648 149.24723816 C50.8867302 148.99144935 48.16262003 148.21164557 45 147 C44.88785156 145.25976562 44.88785156 145.25976562 44.7734375 143.484375 C43.71464363 129.98221843 40.53741606 118.32853468 30 109 C13.74788014 96.98970808 -3.76166916 93.5156153 -23.81640625 95.50390625 C-34.57157509 97.17986508 -46.33850342 100.98046411 -53.9765625 109.1015625 C-60.99728661 118.88907443 -63.41585193 132.10892982 -61.5390625 143.89453125 C-60.04501821 150.88138545 -57.92865401 155.82110528 -53 161 C-52.38511719 161.65484375 -51.77023438 162.3096875 -51.13671875 162.984375 C-30.57271626 182.96747347 4.83827905 189.34192439 31.32470703 197.67163086 C42.41348848 201.1688513 53.44248242 204.78185319 64.38671875 208.7109375 C65.37511749 209.06511246 66.36351624 209.41928741 67.38186646 209.78419495 C104.04805941 223.11335606 140.43948523 243.51845655 157.8125 280.375 C172.55193982 313.20201413 173.43946619 351.32080696 161 385 C146.14573281 424.03034492 117.90725886 449.71922394 80.57421875 467.00390625 C78 468 78 468 75 468 C74.67 468.66 74.34 469.32 74 470 C72.30786133 470.71435547 72.30786133 470.71435547 70.08203125 471.3671875 C69.2506665 471.61122314 68.41930176 471.85525879 67.56274414 472.10668945 C66.65516357 472.36023193 65.74758301 472.61377441 64.8125 472.875 C63.87720459 473.13821045 62.94190918 473.4014209 61.97827148 473.67260742 C55.22448492 475.51587873 48.44606018 477.04092574 41.5625 478.3125 C40.71341064 478.47153809 39.86432129 478.63057617 38.98950195 478.79443359 C24.97282495 481.23597032 10.77487727 481.24117094 -3.41040039 481.29516602 C-5.49933666 481.30665347 -7.58824433 481.32705356 -9.67700195 481.35668945 C-23.53892181 481.55220467 -36.38018152 480.51372021 -49.91285706 477.45628357 C-53.43508735 476.68626644 -56.98967955 476.14296426 -60.55078125 475.58984375 C-63.38172985 474.90806825 -66.03189385 473.88421269 -68.74487305 472.83618164 C-71.12768704 471.95265474 -73.52710248 471.17838669 -75.953125 470.421875 C-85.00287127 467.58122725 -93.36479499 464.80313965 -101.390625 459.66796875 C-103.98593011 458.00899378 -106.62631322 456.63625966 -109.375 455.25 C-115.9406782 451.70226322 -121.57045747 447.07406175 -127.32177734 442.36083984 C-128.86763361 441.10733347 -130.44241958 439.88972879 -132.01953125 438.67578125 C-138.70306507 433.46916819 -143.88652688 427.73727819 -149 421 C-149.51949219 420.34515625 -150.03898437 419.6903125 -150.57421875 419.015625 C-166.79124444 398.22228795 -178.81598507 370.06271665 -177.99609375 343.19921875 C-178.00160202 340.09806038 -178.47557682 337.09898141 -178.9765625 334.04296875 C-179 332 -179 332 -177 328 C-139.05 328 -101.1 328 -62 328 C-61.01 334.93 -60.02 341.86 -59 349 C-55.44047843 361.15147019 -49.68865518 372.7645959 -38.3125 379.13671875 C-36.92196057 379.87207815 -35.52599873 380.59726862 -34.125 381.3125 C-33.46516113 381.65039551 -32.80532227 381.98829102 -32.12548828 382.33642578 C-15.66144148 390.30420143 7.55405332 389.5338385 24.7578125 384.26171875 C37.28026201 379.38852454 45.93877282 373.31855543 51.7734375 361.0625 C55.94882192 350.63733634 56.86448174 338.98447672 53.03125 328.265625 C45.59602834 311.93066833 29.9177758 303.59173899 14 297 C8.55879021 295.00703233 3.06808718 293.18101917 -2.4375 291.375 C-3.20802704 291.12009796 -3.97855408 290.86519592 -4.77243042 290.60256958 C-16.98856844 286.56130877 -29.25633578 282.6950853 -41.5625 278.9375 C-42.31377167 278.70802673 -43.06504333 278.47855347 -43.83908081 278.24212646 C-50.50233252 276.2118418 -57.16057158 274.19853889 -63.90234375 272.44140625 C-69.12560727 271.03914848 -74.02242954 269.09855429 -79 267 C-80.91106039 266.22167843 -82.82253549 265.44437455 -84.734375 264.66796875 C-121.07301215 249.74439943 -151.81499946 229.34250124 -168 192 C-174.57850535 175.48412281 -178.32575904 155.7447748 -177 138 C-176.95601074 137.22688477 -176.91202148 136.45376953 -176.86669922 135.65722656 C-175.68438344 115.27273394 -171.2440979 97.333355 -162.76855469 78.76733398 C-161.89139169 76.82139546 -161.89139169 76.82139546 -161 74 C-160.34 74 -159.68 74 -159 74 C-158.73058594 73.2678125 -158.46117187 72.535625 -158.18359375 71.78125 C-152.94227558 59.46501719 -141.42831959 47.24173645 -131 39 C-130.11570313 38.25621094 -129.23140625 37.51242188 -128.3203125 36.74609375 C-108.2775461 20.45178366 -84.02167281 10.63320964 -59 5 C-58.33613281 4.84692383 -57.67226562 4.69384766 -56.98828125 4.53613281 C-38.39515792 0.34042293 -19.00706522 -0.6849992 0 0 Z " fill="#0D1821" transform="translate(254,7)"/>
<path d="M0 0 C1.5478418 0.05365723 1.5478418 0.05365723 3.12695312 0.10839844 C27.17633251 1.07573989 51.72430794 4.44689759 74 14 C74.70511719 14.30164062 75.41023437 14.60328125 76.13671875 14.9140625 C89.44646531 20.70910259 101.80487718 27.68565782 113 37 C113.5273877 37.42796875 114.05477539 37.8559375 114.59814453 38.296875 C122.69492363 44.87734409 129.77767821 51.55008701 136 60 C136.62390625 60.84433594 137.2478125 61.68867187 137.890625 62.55859375 C139.6476707 65.00699874 141.33679684 67.4870732 143 70 C143.50144531 70.7425 144.00289063 71.485 144.51953125 72.25 C158.17048643 93.57286403 165 121.88648941 165 147 C160.33255996 149.33372002 153.69755267 148.43105153 148.5 148.5625 C147.72253418 148.58301422 146.94506836 148.60352844 146.14404297 148.62466431 C126.94711923 149.10920662 107.74239756 149.14353128 88.54043579 149.18122482 C85.99951439 149.1875012 83.45863021 149.19741622 80.91772461 149.20828247 C76.85727824 149.22498358 72.79694449 149.23108711 68.73646545 149.22925949 C67.21809844 149.23005815 65.69972906 149.23419735 64.18138123 149.24187088 C62.07782989 149.25170039 59.97465166 149.24886874 57.87109375 149.24291992 C56.68443115 149.24434494 55.49776855 149.24576996 54.27514648 149.24723816 C50.8867302 148.99144935 48.16262003 148.21164557 45 147 C44.88785156 145.25976562 44.88785156 145.25976562 44.7734375 143.484375 C43.71464363 129.98221843 40.53741606 118.32853468 30 109 C13.74788014 96.98970808 -3.76166916 93.5156153 -23.81640625 95.50390625 C-34.57157509 97.17986508 -46.33850342 100.98046411 -53.9765625 109.1015625 C-60.99728661 118.88907443 -63.41585193 132.10892982 -61.5390625 143.89453125 C-60.04501821 150.88138545 -57.92865401 155.82110528 -53 161 C-52.38511719 161.65484375 -51.77023438 162.3096875 -51.13671875 162.984375 C-30.57271626 182.96747347 4.83827905 189.34192439 31.32470703 197.67163086 C42.41348848 201.1688513 53.44248242 204.78185319 64.38671875 208.7109375 C65.37511749 209.06511246 66.36351624 209.41928741 67.38186646 209.78419495 C104.04805941 223.11335606 140.43948523 243.51845655 157.8125 280.375 C172.55193982 313.20201413 173.43946619 351.32080696 161 385 C146.14573281 424.03034492 117.90725886 449.71922394 80.57421875 467.00390625 C78 468 78 468 75 468 C74.67 468.66 74.34 469.32 74 470 C72.30786133 470.71435547 72.30786133 470.71435547 70.08203125 471.3671875 C69.2506665 471.61122314 68.41930176 471.85525879 67.56274414 472.10668945 C66.65516357 472.36023193 65.74758301 472.61377441 64.8125 472.875 C63.87720459 473.13821045 62.94190918 473.4014209 61.97827148 473.67260742 C55.22448492 475.51587873 48.44606018 477.04092574 41.5625 478.3125 C40.71341064 478.47153809 39.86432129 478.63057617 38.98950195 478.79443359 C24.97282495 481.23597032 10.77487727 481.24117094 -3.41040039 481.29516602 C-5.49933666 481.30665347 -7.58824433 481.32705356 -9.67700195 481.35668945 C-23.53892181 481.55220467 -36.38018152 480.51372021 -49.91285706 477.45628357 C-53.43508735 476.68626644 -56.98967955 476.14296426 -60.55078125 475.58984375 C-63.38172985 474.90806825 -66.03189385 473.88421269 -68.74487305 472.83618164 C-71.12768704 471.95265474 -73.52710248 471.17838669 -75.953125 470.421875 C-85.00287127 467.58122725 -93.36479499 464.80313965 -101.390625 459.66796875 C-103.98593011 458.00899378 -106.62631322 456.63625966 -109.375 455.25 C-115.9406782 451.70226322 -121.57045747 447.07406175 -127.32177734 442.36083984 C-128.86763361 441.10733347 -130.44241958 439.88972879 -132.01953125 438.67578125 C-138.70306507 433.46916819 -143.88652688 427.73727819 -149 421 C-149.51949219 420.34515625 -150.03898437 419.6903125 -150.57421875 419.015625 C-166.79124444 398.22228795 -178.81598507 370.06271665 -177.99609375 343.19921875 C-178.00160202 340.09806038 -178.47557682 337.09898141 -178.9765625 334.04296875 C-179 332 -179 332 -177 328 C-139.05 328 -101.1 328 -62 328 C-61.01 334.93 -60.02 341.86 -59 349 C-55.44047843 361.15147019 -49.68865518 372.7645959 -38.3125 379.13671875 C-36.92196057 379.87207815 -35.52599873 380.59726862 -34.125 381.3125 C-33.46516113 381.65039551 -32.80532227 381.98829102 -32.12548828 382.33642578 C-15.66144148 390.30420143 7.55405332 389.5338385 24.7578125 384.26171875 C37.28026201 379.38852454 45.93877282 373.31855543 51.7734375 361.0625 C55.94882192 350.63733634 56.86448174 338.98447672 53.03125 328.265625 C45.59602834 311.93066833 29.9177758 303.59173899 14 297 C8.55879021 295.00703233 3.06808718 293.18101917 -2.4375 291.375 C-3.20802704 291.12009796 -3.97855408 290.86519592 -4.77243042 290.60256958 C-16.98856844 286.56130877 -29.25633578 282.6950853 -41.5625 278.9375 C-42.31377167 278.70802673 -43.06504333 278.47855347 -43.83908081 278.24212646 C-50.50233252 276.2118418 -57.16057158 274.19853889 -63.90234375 272.44140625 C-69.12560727 271.03914848 -74.02242954 269.09855429 -79 267 C-80.91106039 266.22167843 -82.82253549 265.44437455 -84.734375 264.66796875 C-121.07301215 249.74439943 -151.81499946 229.34250124 -168 192 C-174.57850535 175.48412281 -178.32575904 155.7447748 -177 138 C-176.95601074 137.22688477 -176.91202148 136.45376953 -176.86669922 135.65722656 C-175.68438344 115.27273394 -171.2440979 97.333355 -162.76855469 78.76733398 C-161.89139169 76.82139546 -161.89139169 76.82139546 -161 74 C-160.34 74 -159.68 74 -159 74 C-158.73058594 73.2678125 -158.46117187 72.535625 -158.18359375 71.78125 C-152.94227558 59.46501719 -141.42831959 47.24173645 -131 39 C-130.11570313 38.25621094 -129.23140625 37.51242188 -128.3203125 36.74609375 C-108.2775461 20.45178366 -84.02167281 10.63320964 -59 5 C-58.33613281 4.84692383 -57.67226562 4.69384766 -56.98828125 4.53613281 C-38.39515792 0.34042293 -19.00706522 -0.6849992 0 0 Z M-63.3125 15.5625 C-64.24707031 15.81153076 -65.18164062 16.06056152 -66.14453125 16.31713867 C-87.28571494 22.24376871 -107.36325065 31.54054335 -124 46 C-125.24523437 47.06347656 -125.24523437 47.06347656 -126.515625 48.1484375 C-149.43514271 68.18543918 -164.59942726 96.39582329 -167 127 C-167.16371764 131.56326376 -167.18506746 136.12162131 -167.1875 140.6875 C-167.19974609 141.87794922 -167.21199219 143.06839844 -167.22460938 144.29492188 C-167.27461123 174.94606203 -156.69746595 200.85735629 -135.375 222.6875 C-134.59125 223.450625 -133.8075 224.21375 -133 225 C-132.53851563 225.50660156 -132.07703125 226.01320312 -131.6015625 226.53515625 C-107.00294913 252.87367154 -63.23947809 264.57549345 -29.6015625 273.04296875 C-23.49593235 274.66539759 -17.5012381 276.63694648 -11.48828125 278.5703125 C-7.86321994 279.73499692 -4.21939597 280.81407768 -0.5625 281.875 C16.20006199 287.0195203 33.52670196 293.59563537 47 305 C47.68835938 305.52078125 48.37671875 306.0415625 49.0859375 306.578125 C56.42741456 312.37254751 61.76297363 320.90485991 64 330 C65.16695887 343.03063379 65.63889138 356.37753763 59 368 C58.56558594 368.80953125 58.13117188 369.6190625 57.68359375 370.453125 C51.43383467 380.92280687 41.99605167 387.2563002 31 392 C30.20851563 392.34933594 29.41703125 392.69867188 28.6015625 393.05859375 C11.56608549 399.22308318 -10.86662054 399.67863075 -28 394 C-28.95777344 393.70996094 -29.91554687 393.41992188 -30.90234375 393.12109375 C-37.33433143 391.01238997 -42.61377499 388.07550866 -48 384 C-48.61617188 383.54882812 -49.23234375 383.09765625 -49.8671875 382.6328125 C-64.10008127 371.4362694 -67.41814856 355.01379434 -71 338 C-103.01 338 -135.02 338 -168 338 C-168 350.1522914 -166.98106335 360.33622785 -164 372 C-163.79632813 372.83273437 -163.59265625 373.66546875 -163.3828125 374.5234375 C-154.29355472 408.29956825 -128.00790729 433.48277278 -98.71875 450.515625 C-69.96554654 466.71102824 -37.42117222 472.65122019 -4.75 472.375 C-3.7652066 472.37034729 -2.78041321 472.36569458 -1.76577759 472.36090088 C12.99326099 472.27926919 27.48484336 471.92049078 42 469 C42.98081543 468.80664062 43.96163086 468.61328125 44.97216797 468.4140625 C59.54999088 465.42515908 72.76840907 460.78069282 86 454 C86.72155273 453.63503418 87.44310547 453.27006836 88.18652344 452.89404297 C98.38261334 447.66907574 107.23040464 441.3435536 116 434 C116.76957031 433.38382812 117.53914063 432.76765625 118.33203125 432.1328125 C140.64404973 413.73749943 155.27495477 382.26597395 159 354 C159.4456995 348.68917619 159.47525967 343.37552767 159.44604492 338.04907227 C159.4375421 335.6991365 159.4664234 333.35165088 159.49804688 331.00195312 C159.62257943 303.41933908 149.68973674 279.09707596 131 259 C130.20980469 258.12859375 129.41960937 257.2571875 128.60546875 256.359375 C112.34819935 239.21240429 90.9525346 228.64970269 68.98266602 220.71606445 C64.51802538 219.10360404 60.07923074 217.42890882 55.66796875 215.67578125 C47.47239126 212.46561678 39.20470537 209.82036477 30.75 207.375 C-34.15992955 188.50189633 -34.15992955 188.50189633 -53 174 C-53.680625 173.49984375 -54.36125 172.9996875 -55.0625 172.484375 C-62.95331511 166.2941666 -68.40223347 156.58597317 -71 147 C-72.09392212 135.53878769 -72.1893333 123.47566348 -67 113 C-66.57589844 112.1234375 -66.15179688 111.246875 -65.71484375 110.34375 C-59.29809201 98.47544037 -49.0340251 92.07771333 -36.33276367 88.18188477 C-29.12563616 86.20381449 -22.395971 85.48632687 -14.9375 85.5625 C-13.3134021 85.5771228 -13.3134021 85.5771228 -11.65649414 85.59204102 C7.373051 86.00575727 25.22728847 90.59242933 39.33203125 104.13671875 C47.76747554 113.55991998 51.72426404 123.47037769 53.60546875 135.8828125 C53.78937092 137.97790529 53.78937092 137.97790529 55 139 C58.07454761 139.09532328 61.12659158 139.1255138 64.20141602 139.11352539 C65.16716553 139.11367142 66.13291504 139.11381744 67.12792969 139.1139679 C70.33661099 139.11326834 73.54523503 139.10547397 76.75390625 139.09765625 C78.97208118 139.09579222 81.19025652 139.09436825 83.40843201 139.09336853 C89.25940071 139.08954216 95.11034477 139.07971086 100.96130371 139.06866455 C106.92667304 139.05845299 112.89204633 139.05387146 118.85742188 139.04882812 C130.57162544 139.03808869 142.28581067 139.02101085 154 139 C154.01307656 137.57880095 154.02233857 136.15756652 154.0300293 134.73632812 C154.03560349 133.94488403 154.04117767 133.15343994 154.04692078 132.3380127 C153.43988046 102.08983543 136.23754481 71.38121928 115.0859375 50.8984375 C93.57817122 31.32395359 66.38316698 18.74700847 37.90234375 13.7265625 C34 13 34 13 32 12 C19.11841959 10.23087359 6.26409699 9.65271813 -6.72680664 9.68432617 C-9.43351293 9.68749533 -12.13912958 9.66385271 -14.84570312 9.63867188 C-31.20842674 9.57891851 -47.47493699 11.30245458 -63.3125 15.5625 Z " fill="#46555C" transform="translate(254,7)"/>
<path d="M0 0 C37.95 0 75.9 0 115 0 C116.125 7.875 116.125 7.875 116.0625 11.9375 C116.05347656 12.70964844 116.04445313 13.48179687 116.03515625 14.27734375 C116.02355469 14.84582031 116.01195312 15.41429687 116 16 C115.67 16 115.34 16 115 16 C113.72861192 11.07337118 114 7.46314577 114 2 C76.71 2 39.42 2 1 2 C1.77028538 22.1316783 1.77028538 22.1316783 4 42 C1.60461022 38.40691534 1.07641474 35.04586466 0.375 30.875 C0.2423877 30.10671875 0.10977539 29.3384375 -0.02685547 28.546875 C-0.77825883 23.98236553 -1.24718094 19.62179934 -1.03125 14.98828125 C-0.98366501 11.96068607 -1.48764298 9.02537782 -1.9765625 6.04296875 C-2 4 -2 4 0 0 Z " fill="#C8CCCE" transform="translate(77,335)"/>
<path d="M0 0 C0.53625 0.63421875 1.0725 1.2684375 1.625 1.921875 C0.78839844 1.71691406 -0.04820312 1.51195313 -0.91015625 1.30078125 C-21.30443708 -3.41948973 -41.92090309 -4.15058315 -60.375 6.921875 C-61.035 6.591875 -61.695 6.261875 -62.375 5.921875 C-61.08686658 5.08309045 -59.79436744 4.25100717 -58.5 3.421875 C-57.78070313 2.9578125 -57.06140625 2.49375 -56.3203125 2.015625 C-54.375 0.921875 -54.375 0.921875 -52.375 0.921875 C-52.375 0.261875 -52.375 -0.398125 -52.375 -1.078125 C-50.395 -1.078125 -48.415 -1.078125 -46.375 -1.078125 C-46.375 -1.738125 -46.375 -2.398125 -46.375 -3.078125 C-9.18491736 -8.03680269 -9.18491736 -8.03680269 0 0 Z " fill="#B2B8BB" transform="translate(267.375,104.078125)"/>
<path d="M0 0 C5.28 0 10.56 0 16 0 C16 0.33 16 0.66 16 1 C11.38 1 6.76 1 2 1 C2.42551111 14.43719295 2.98483685 27.69601026 5 41 C2.60461022 37.40691534 2.07641474 34.04586466 1.375 29.875 C1.2423877 29.10671875 1.10977539 28.3384375 0.97314453 27.546875 C0.22193001 22.98351264 -0.24243439 18.62440328 -0.03515625 13.9921875 C0.01876236 10.93679965 -0.44068667 7.96415848 -0.87890625 4.9453125 C-1 3 -1 3 0 0 Z " fill="#BDC2C5" transform="translate(76,336)"/>
<path d="M0 0 C14.84097389 0.38232017 30.14280849 4.86451909 44 10 C44 10.33 44 10.66 44 11 C38.56980422 11.32581175 35.78423452 10.39211726 31 8 C28.45214454 7.23672987 25.95662412 6.54953778 23.375 5.9375 C22.67930908 5.76686035 21.98361816 5.5962207 21.2668457 5.42041016 C16.00145588 4.15913053 10.72279966 3.21770258 5.35546875 2.4921875 C3 2 3 2 0 0 Z " fill="#BDC2C5" transform="translate(282,10)"/>
<path d="M0 0 C1.4741203 2.70969631 2.33788323 5.04621068 2.81640625 8.08984375 C2.94039795 8.8686792 3.06438965 9.64751465 3.19213867 10.44995117 C3.31435791 11.27084229 3.43657715 12.0917334 3.5625 12.9375 C3.69180908 13.77837158 3.82111816 14.61924316 3.9543457 15.4855957 C4.97107258 22.30996017 5.64113685 29.10735255 6 36 C5.34 36 4.68 36 4 36 C3.86722656 34.79601562 3.73445313 33.59203125 3.59765625 32.3515625 C3.4194698 30.77601915 3.2410735 29.20049953 3.0625 27.625 C2.97548828 26.8309375 2.88847656 26.036875 2.79882812 25.21875 C2.3961065 20.97744999 2.3961065 20.97744999 1 17 C0.76725791 14.12089412 0.58027243 11.25853505 0.4375 8.375 C0.39431641 7.57320313 0.35113281 6.77140625 0.30664062 5.9453125 C0.20048543 3.9637489 0.09973145 1.98189729 0 0 Z " fill="#B1B7BB" transform="translate(413,118)"/>
<path d="M0 0 C-8.84058935 5.25265426 -17.61514097 4.45572043 -27.5625 4.25 C-29.25583826 4.22990488 -30.94919953 4.21165943 -32.64257812 4.1953125 C-36.76229372 4.15155338 -40.88088951 4.0826939 -45 4 C-45 3.67 -45 3.34 -45 3 C-44.18958252 2.98541748 -43.37916504 2.97083496 -42.54418945 2.95581055 C-39.4704284 2.893911 -36.39725835 2.81961798 -33.32397461 2.73754883 C-31.36658166 2.68884564 -29.40886388 2.6537988 -27.45117188 2.61914062 C-19.84351149 2.40620357 -12.94565703 1.55207341 -5.59838867 -0.46557617 C-3 -1 -3 -1 0 0 Z " fill="#C9CDD0" transform="translate(282,392)"/>
<path d="M0 0 C1.2726135 3.81784049 0.50882059 5.79707091 -0.4375 9.6875 C-2.41644799 18.49788489 -2.02424748 26.07441485 -1 35 C-2.89918858 33.40888112 -3.90489138 32.52238084 -4.35644531 30.04223633 C-4.34709961 29.31286865 -4.33775391 28.58350098 -4.328125 27.83203125 C-4.32296875 27.02056641 -4.3178125 26.20910156 -4.3125 25.37304688 C-4.291875 24.52806641 -4.27125 23.68308594 -4.25 22.8125 C-4.24484375 21.98685547 -4.2396875 21.16121094 -4.234375 20.31054688 C-4.04932596 5.63384481 -4.04932596 5.63384481 0 0 Z " fill="#9DA4A8" transform="translate(194,123)"/>
<path d="M0 0 C3.38386457 3.38386457 2.36903347 7.97125578 2.375 12.5625 C2.39949219 13.52736328 2.42398437 14.49222656 2.44921875 15.48632812 C2.47650612 22.22176124 1.21514015 27.09575917 -2 33 C-2.33 33.66 -2.66 34.32 -3 35 C-3.66 35 -4.32 35 -5 35 C-4.80664062 34.43152344 -4.61328125 33.86304688 -4.4140625 33.27734375 C-4.15367187 32.50519531 -3.89328125 31.73304688 -3.625 30.9375 C-3.24214844 29.80634766 -3.24214844 29.80634766 -2.8515625 28.65234375 C-2.43003906 27.33943359 -2.43003906 27.33943359 -2 26 C-1.45859375 24.4221875 -1.45859375 24.4221875 -0.90625 22.8125 C0.20538031 18.13598629 0.21955558 13.84483029 0.125 9.0625 C0.11597656 8.18787109 0.10695313 7.31324219 0.09765625 6.41210938 C0.0742957 4.27461936 0.03843247 2.13727214 0 0 Z " fill="#AFB5B8" transform="translate(309,339)"/>
<path d="M0 0 C0.66 0.33 1.32 0.66 2 1 C-0.03401735 3.25733676 -2.07665394 5.50572519 -4.125 7.75 C-4.69476563 8.38421875 -5.26453125 9.0184375 -5.8515625 9.671875 C-9.30415344 13.43833784 -12.6184736 16.36309354 -17 19 C-13.47817718 11.44618376 -7.26266863 6.29113293 -1 1 C-0.67 0.67 -0.34 0.34 0 0 Z " fill="#9FA6AA" transform="translate(124,45)"/>
<path d="M0 0 C2.30722782 6.98713674 -0.99266468 15.22524329 -3 22 C-3.70348915 24.99223809 -4.35921476 27.99376285 -5 31 C-5.33 31 -5.66 31 -6 31 C-6.29569588 24.4871086 -5.24390791 18.9638298 -3.5625 12.6875 C-3.33240234 11.79482422 -3.10230469 10.90214844 -2.86523438 9.98242188 C-1.99169404 6.6173926 -1.09970465 3.29911396 0 0 Z " fill="#BABFC2" transform="translate(85,100)"/>
<path d="M0 0 C-1 2 -1 2 -3.40625 2.8515625 C-9.79713534 4.44928384 -15.41512113 5.32924394 -22 5 C-18.62851015 2.7523401 -16.0762778 2.20201163 -12.125 1.375 C-10.91070312 1.11460938 -9.69640625 0.85421875 -8.4453125 0.5859375 C-5.52909158 0.08998156 -2.94382903 -0.12312593 0 0 Z " fill="#A5ACAF" transform="translate(205,11)"/>
<path d="M0 0 C1.30211046 3.90633137 0.47812346 6.19538173 -0.4375 10.1875 C-0.72496094 11.45980469 -1.01242188 12.73210937 -1.30859375 14.04296875 C-1.53675781 15.01878906 -1.76492187 15.99460938 -2 17 C-2.33 17 -2.66 17 -3 17 C-3.08160748 15.10489301 -3.13946459 13.20875496 -3.1875 11.3125 C-3.22230469 10.25675781 -3.25710937 9.20101562 -3.29296875 8.11328125 C-2.96666615 4.64577232 -1.99030125 2.81567552 0 0 Z " fill="#BDC2C5" transform="translate(194,123)"/>
<path d="M0 0 C1.41805831 0.28482368 2.83440379 0.57818144 4.25 0.875 C5.03890625 1.03742188 5.8278125 1.19984375 6.640625 1.3671875 C8.96831144 1.99150075 10.89031952 2.84838542 13 4 C11.20741442 3.91306859 9.41584856 3.80489496 7.625 3.6875 C6.62726563 3.62949219 5.62953125 3.57148438 4.6015625 3.51171875 C3.74304688 3.34285156 2.88453125 3.17398438 2 3 C1.34 2.01 0.68 1.02 0 0 Z " fill="#BDC2C5" transform="translate(271,201)"/>
<path d="M0 0 C1.9789756 3.63616656 2.5251065 6.88425629 3 11 C2.01 10.34 1.02 9.68 0 9 C-0.29296875 6.8359375 -0.29296875 6.8359375 -0.1875 4.375 C-0.16042969 3.55773437 -0.13335937 2.74046875 -0.10546875 1.8984375 C-0.05326172 0.95871094 -0.05326172 0.95871094 0 0 Z " fill="#AEB4B8" transform="translate(193,352)"/>
</svg>
